<svg xmlns="http://www.w3.org/2000/svg" width="960" height="600" viewBox="0 0 960 600" role="img" aria-label="CCTV Status Management dashboard preview">
  <defs>
    <linearGradient id="bg" x1="0" x2="1" y1="0" y2="1">
      <stop stop-color="#061226"/>
      <stop offset="1" stop-color="#0f172a"/>
    </linearGradient>
    <linearGradient id="accent" x1="0" x2="1">
      <stop stop-color="#22d3ee"/>
      <stop offset="1" stop-color="#c084fc"/>
    </linearGradient>
  </defs>
  <rect width="960" height="600" fill="url(#bg)"/>
  <rect x="82" y="72" width="796" height="448" rx="8" fill="#08112a" stroke="#334155"/>
  <rect x="116" y="112" width="168" height="368" rx="8" fill="#0f1b3d"/>
  <rect x="316" y="112" width="520" height="86" rx="8" fill="#0f1b3d"/>
  <rect x="316" y="230" width="242" height="112" rx="8" fill="#0f1b3d"/>
  <rect x="594" y="230" width="242" height="112" rx="8" fill="#0f1b3d"/>
  <rect x="316" y="374" width="520" height="106" rx="8" fill="#0f1b3d"/>
  <path d="M152 164H248M152 214H238M152 264H252M152 314H224M152 364H244" stroke="#64748b" stroke-width="11" stroke-linecap="round"/>
  <path d="M358 156H612M356 286H498M632 286H782M356 428H744" stroke="url(#accent)" stroke-width="13" stroke-linecap="round"/>
  <circle cx="782" cy="154" r="18" fill="#34d399"/>
  <circle cx="522" cy="286" r="14" fill="#34d399"/>
  <circle cx="806" cy="286" r="14" fill="#f59e0b"/>
  <text x="112" y="558" fill="#e0f2fe" font-family="Inter,Arial,sans-serif" font-size="30" font-weight="900">CCTV Status Management</text>
</svg>
